<svg xmlns="http://www.w3.org/2000/svg" viewBox="0 0 38.67 38.67"><defs><style>.cls-1{fill:#f58634;}</style></defs><g id="Layer_2" data-name="Layer 2"><g id="Layer_1-2" data-name="Layer 1"><path class="cls-1" d="M34.89,15.11l3.78-2V38.67H34.89Zm-7.78,4.12,4.22-1.45V34.89H27.11ZM7.33,17.78l4.23,1.55V31.11H7.33ZM0,13.11l4,1.52V34.89H0Z"/><path class="cls-1" d="M0,38.67V34.89H31.33v3.78Z"/><path class="cls-1" d="M31.33,17.78l-12.11-8-3.11,2.11,3,2.11,8,5.56Z"/><path class="cls-1" d="M16.11,11.89,7.33,17.78l4.23,1.55L19.11,14Zm6.33-9.67L4,14.89,0,13.11,19.33,0Z"/><path class="cls-1" d="M38.67,13.11,22.44,2.22,19.33,4.33,34.89,15.11Z"/></g></g></svg>